<svg xmlns="http://www.w3.org/2000/svg" viewBox="0 0 1024 1024">
  <path d="M593.408 64.341333l147.114667 84.906667a32 32 0 0 1-32 55.466667l-147.114667-84.992a96 96 0 0 0-96 0L241.493333 249.002667a127.402667 127.402667 0 0 1 13.226667 88.917333l103.765333 51.797333a191.744 191.744 0 0 1 155.050667-78.592c63.914667 0 120.490667 31.232 155.392 79.274667l103.68-51.285333a127.744 127.744 0 0 1-2.56-15.701334l-0.512-12.288a128 128 0 1 1 163.84 122.88l0.085333 219.221334c0 57.173333-30.464 109.994667-79.957333 138.496l-115.626667 66.816a32 32 0 0 1-32-55.466667l115.626667-66.730667c29.696-17.152 47.957333-48.810667 47.957333-83.114666V436.053333a127.914667 127.914667 0 0 1-67.584-39.850666l-104.448 51.712a192 192 0 0 1-130.56 239.701333v83.114667a128 128 0 1 1-178.005333 145.493333L173.482667 791.722667a160 160 0 0 1-80.042667-138.496V525.824a32 32 0 1 1 64 0v127.402667c0 34.304 18.346667 65.962667 48.042667 83.114666l187.221333 108.202667c14.08-39.936 47.36-70.826667 88.746667-81.408v-70.656A192 192 0 0 1 329.728 447.146667l-103.765333-51.968c-20.992 23.978667-50.688 40.106667-84.224 43.349333l-12.288 0.597333a128 128 0 1 1 66.218666-237.568L433.408 64.341333a160 160 0 0 1 160 0z" fill="#6366f1"/>
</svg>
